<?xml version="1.0" standalone="no"?>
<!DOCTYPE svg PUBLIC "-//W3C//DTD SVG 20010904//EN"
 "http://www.w3.org/TR/2001/REC-SVG-20010904/DTD/svg10.dtd">
<svg version="1.0" xmlns="http://www.w3.org/2000/svg"
 width="133.000000pt" height="53.000000pt" viewBox="0 0 133.000000 53.000000"
 preserveAspectRatio="xMidYMid meet">

<g transform="translate(0.000000,53.000000) scale(0.100000,-0.100000)"
fill="#000000" stroke="none">
<path d="M203 472 c-7 -4 -26 -53 -43 -107 -17 -55 -32 -106 -35 -113 -4 -10
5 -12 32 -10 36 3 37 5 50 58 8 30 16 61 19 69 3 9 22 -15 47 -60 60 -106 87
-104 142 11 16 33 32 60 36 60 3 0 9 -14 13 -32 3 -18 11 -49 17 -70 l10 -38
157 0 c170 0 195 7 204 53 12 64 -31 87 -164 87 -63 0 -78 3 -78 15 0 13 23
15 147 15 146 0 147 0 175 -27 l29 -28 -63 -57 -63 -57 45 -1 c38 0 50 5 82
37 l37 36 45 -36 c37 -31 52 -37 92 -37 l47 0 -64 59 -64 60 60 55 60 55 -45
1 c-38 0 -50 -5 -82 -37 l-38 -37 -38 37 -38 37 -168 0 c-198 0 -225 -9 -226
-71 0 -48 31 -63 144 -69 81 -4 101 -8 101 -20 0 -12 -20 -15 -119 -15 l-119
0 -13 40 c-7 22 -18 59 -24 82 -11 43 -37 67 -63 58 -7 -3 -33 -39 -56 -80
-23 -41 -45 -75 -49 -75 -4 0 -20 25 -36 56 -50 95 -72 116 -103 96z"/>
<path d="M136 171 c-4 -5 3 -7 14 -4 23 6 26 13 6 13 -8 0 -17 -4 -20 -9z"/>
<path d="M270 165 c-11 -13 -11 -19 3 -32 21 -21 49 -9 45 19 -4 28 -30 35
-48 13z m38 -12 c-5 -25 -28 -28 -28 -4 0 12 6 21 16 21 9 0 14 -7 12 -17z"/>
<path d="M440 155 c13 -14 25 -23 27 -21 6 6 -30 46 -41 46 -5 0 1 -11 14 -25z"/>
<path d="M588 153 c5 -23 7 -25 10 -8 2 11 9 23 16 27 6 5 3 8 -10 8 -18 0
-20 -4 -16 -27z"/>
<path d="M722 153 c2 -14 10 -28 18 -30 13 -4 13 -3 0 6 -13 10 -13 12 0 21
13 9 13 10 0 10 -13 0 -13 1 0 10 13 8 12 10 -3 10 -14 0 -18 -6 -15 -27z"/>
<path d="M851 153 c1 -17 3 -21 6 -10 2 9 9 17 14 17 6 0 7 5 4 10 -12 19 -25
10 -24 -17z"/>
<path d="M901 168 c0 -10 -6 -18 -13 -18 -9 0 -9 -3 0 -12 16 -16 25 -5 19 24
-3 14 -5 16 -6 6z"/>
<path d="M1018 153 c5 -23 7 -25 10 -8 2 11 9 23 16 27 6 5 3 8 -10 8 -18 0
-20 -4 -16 -27z"/>
<path d="M1150 166 c0 -8 8 -17 18 -21 16 -7 15 -8 -3 -15 -16 -7 -17 -9 -3
-9 24 -1 31 14 12 29 -12 11 -12 15 -2 21 10 7 9 9 -4 9 -10 0 -18 -6 -18 -14z"/>
<path d="M137 129 c7 -7 15 -10 18 -7 3 3 -2 9 -12 12 -14 6 -15 5 -6 -5z"/>
</g>
</svg>
